<svg xmlns="http://www.w3.org/2000/svg" xmlns:xlink="http://www.w3.org/1999/xlink" viewBox="0 0 301 203" version="1.1" width="250px" height="169px">
    <!-- Generator: Sketch 52.6 (67491) - http://www.bohemiancoding.com/sketch -->
    <title>adidas</title>
    <desc>Created with Sketch.</desc>
    <g id="Page-1" stroke="none" stroke-width="1" fill="none" fill-rule="evenodd" fill-color-id="-1" stroke-color-id="-1" recolor-fill="true" recolor-stroke="true">
        <g id="adidas" fill="#FFFFFFFF" fill-color-id="0" stroke-color-id="-1" recolor-fill="true" recolor-stroke="true">
            <path d="M277.983,202.645 C263.953,202.645 255.633,195.465 254.996,185.125 L268.41,185.125 C268.41,188.572 270.32,193.16 278.62,193.445 C284.372,193.445 287.555,189.999 287.555,187.408 C286.918,183.39 281.803,183.105 276.709,182.227 C270.957,181.393 266.5,180.229 263.295,178.802 C258.838,176.497 256.269,171.601 256.269,166.442 C256.269,157.242 263.953,150.062 277.346,150.062 C290.124,150.062 298.423,156.672 299.037,166.727 L286.282,166.727 C286.282,164.157 285.645,159.833 277.982,159.833 C272.867,159.833 269.684,160.689 269.047,164.421 C269.047,169.603 279.893,169.317 288.192,171.315 C295.854,173.335 300.969,178.209 300.969,185.125 C300.969,197.771 290.76,202.645 277.983,202.645 M33.537,117.8 L77.579,92.222 L101.202,132.752 L41.836,132.752" id="Shape" fill-rule="nonzero" fill-color-id="0" stroke-color-id="-1" recolor-fill="true" recolor-stroke="true" fill="#FFFFFFFF"/>
            <path d="M126.15,201.12 L126.15,149.965" id="Path" stroke="#FFFFFFFF" stroke-width="12.887585" fill-color-id="0" stroke-color-id="0" recolor-fill="true" recolor-stroke="true" fill="#FFFFFFFF"/>
            <path d="M13.096,176.299 C13.096,184.334 20.121,190.943 27.761,190.943 C36.082,190.943 42.449,184.334 42.449,176.299 C42.449,168.549 36.082,161.655 27.761,161.655 C20.121,161.655 13.096,168.549 13.096,176.299 M27.125,202.733 C13.095,202.733 0.976,190.943 0.976,176.299 C0.976,161.655 13.096,150.151 27.125,150.151 C32.877,150.151 37.992,151.6 42.449,154.739 L42.449,150.721 L55.227,150.721 L55.227,201.569 L42.45,201.569 L42.45,198.408 C38.63,201.284 32.878,202.733 27.126,202.733 M197.59,132.74 L136.314,25.863 L180.355,1.42108547e-14 L256.956,132.74 M71.825,176.299 C71.825,184.334 78.215,190.943 86.513,190.943 C94.153,190.943 101.201,184.334 101.201,176.299 C101.201,168.549 94.153,161.655 86.513,161.655 C78.214,161.655 71.825,168.549 71.825,176.299 M85.876,202.733 C71.188,202.733 59.706,190.943 59.706,176.299 C59.706,161.655 71.188,150.151 85.876,150.151 C91.606,150.151 96.722,151.6 101.201,154.739 L101.201,133.201 L113.957,133.201 L113.957,201.569 L101.2,201.569 L101.2,198.408 C96.721,201.284 91.606,202.733 85.875,202.733 M85.247,72.119 L129.925,46.849 L179.083,132.737 L132.473,132.737 L132.473,145.383 L119.716,145.383 L119.716,132.737 M292.692,145.781 C289.487,145.781 286.304,142.905 286.304,139.458 C286.304,136.011 289.487,133.135 292.692,133.135 C296.512,133.135 299.082,136.012 299.082,139.458 C299.082,142.904 296.512,145.782 292.692,145.782 M292.692,134.014 C289.487,134.014 287.577,136.582 287.577,139.458 C287.577,142.334 289.487,144.925 292.692,144.925 C295.876,144.925 297.786,142.335 297.786,139.458 C297.786,136.581 295.876,134.014 292.692,134.014" id="Shape" fill-rule="nonzero" fill-color-id="0" stroke-color-id="-1" recolor-fill="true" recolor-stroke="true" fill="#FFFFFFFF"/>
            <path d="M294.01,142.927 L292.736,140.051 L291.463,140.051 L291.463,142.927 L290.497,142.927 L290.497,136.033 L293.373,136.033 C294.01,136.033 295.283,136.912 295.283,138.053 C295.283,139.194 294.646,139.766 294.01,140.051 L295.283,142.927 L294.01,142.927 Z M292.736,136.912 L291.463,136.912 L291.463,139.195 L292.736,139.195 C294.01,139.195 294.01,138.91 294.01,138.053 C294.01,137.461 294.01,136.912 292.736,136.912 Z M208.385,176.299 C208.385,184.334 214.775,190.943 223.073,190.943 C230.735,190.943 237.739,184.334 237.739,176.299 C237.739,168.549 230.735,161.655 223.073,161.655 C214.774,161.655 208.385,168.549 208.385,176.299 Z M222.415,202.733 C207.749,202.733 196.266,190.943 196.266,176.299 C196.266,161.655 207.749,150.151 222.414,150.151 C228.167,150.151 233.282,151.6 237.739,154.739 L237.739,150.721 L249.88,150.721 L249.88,201.569 L237.74,201.569 L237.74,198.408 C233.282,201.284 228.167,202.733 222.414,202.733 L222.415,202.733 Z M149.7,176.299 C149.7,184.334 156.725,190.943 164.387,190.943 C172.687,190.943 179.075,184.334 179.075,176.299 C179.075,168.549 172.686,161.655 164.387,161.655 C156.725,161.655 149.7,168.549 149.7,176.299 Z M179.075,133.201 L191.831,133.201 L191.831,201.569 L179.075,201.569 L179.075,198.408 C175.233,201.284 170.118,202.733 164.387,202.733 C149.7,202.733 137.58,190.943 137.58,176.299 C137.58,161.655 149.7,150.151 164.387,150.151 C170.117,150.151 175.233,151.6 179.075,154.739 L179.075,133.201 Z" id="Shape" fill-rule="nonzero" fill-color-id="0" stroke-color-id="-1" recolor-fill="true" recolor-stroke="true" fill="#FFFFFFFF"/>
        </g>
    </g>
</svg>