<svg xmlns="http://www.w3.org/2000/svg" xmlns:xlink="http://www.w3.org/1999/xlink" viewBox="0 0 2501 754" version="1.1" width="1000px" height="302px">
    <!-- Generator: Sketch 52.6 (67491) - http://www.bohemiancoding.com/sketch -->
    <title>amazon</title>
    <desc>Created with Sketch.</desc>
    <g id="Page-1" stroke="none" stroke-width="1" fill="none" fill-rule="evenodd" fill-color-id="-1" stroke-color-id="-1" recolor-fill="true" recolor-stroke="true">
        <g id="amazon" transform="translate(-0.000000, 0.000000)" fill-color-id="-1" stroke-color-id="-1" recolor-fill="true" recolor-stroke="true">
            <path d="M1551.26316,589.473684 C1406.52632,696.491228 1196,753.508772 1014.42105,753.508772 C760.035088,753.508772 531.964912,659.649123 358.280702,503.508772 C345.122807,491.22807 356.526316,474.561404 373.192982,484.210526 C560.035088,592.982456 790.736842,657.894737 1029.33333,657.894737 C1189.85965,657.894737 1367.05263,624.561404 1530.21053,555.263158 C1554.77193,545.614035 1574.94737,571.929825 1551.26316,589.473684 Z" id="Path" fill="#FFFFFFFF" fill-color-id="0" stroke-color-id="-1" recolor-fill="true" recolor-stroke="true"/>
            <path d="M1611.78947,520.175439 C1593.36842,496.491228 1488.98246,508.77193 1442.49123,514.912281 C1428.45614,516.666667 1425.82456,504.385965 1438.98246,495.614035 C1522.31579,436.842105 1658.2807,454.385965 1674.07018,473.684211 C1689.85965,492.982456 1669.68421,629.824561 1591.61404,694.736842 C1579.33333,704.385965 1567.92982,699.122807 1573.19298,685.964912 C1590.73684,642.105263 1630.21053,544.736842 1611.78947,520.175439 Z" id="Path" fill="#FFFFFFFF" fill-color-id="0" stroke-color-id="-1" recolor-fill="true" recolor-stroke="true"/>
            <path d="M1445.12281,83.3333333 L1445.12281,26.3157895 C1445.12281,17.5438596 1451.26316,12.2807018 1459.15789,12.2807018 L1713.54386,12.2807018 C1721.4386,12.2807018 1728.45614,18.4210526 1728.45614,26.3157895 L1728.45614,74.5614035 C1728.45614,82.4561404 1721.4386,92.9824561 1709.15789,110.526316 L1577.57895,298.245614 C1626.70175,297.368421 1678.45614,304.385965 1722.31579,328.947368 C1731.96491,334.210526 1734.59649,342.982456 1735.47368,350.877193 L1735.47368,411.403509 C1735.47368,420.175439 1726.70175,429.824561 1717.05263,424.561404 C1638.98246,383.333333 1534.59649,378.947368 1448.63158,425.438596 C1439.85965,429.824561 1430.21053,421.052632 1430.21053,412.280702 L1430.21053,354.385965 C1430.21053,345.614035 1430.21053,329.824561 1439.85965,315.789474 L1592.49123,97.3684211 L1460.03509,97.3684211 C1452.14035,97.3684211 1445.12281,91.2280702 1445.12281,83.3333333 Z M517.929825,436.842105 L440.736842,436.842105 C433.719298,435.964912 427.578947,430.701754 426.701754,423.684211 L426.701754,27.1929825 C426.701754,19.2982456 433.719298,13.1578947 441.614035,13.1578947 L513.54386,13.1578947 C521.438596,13.1578947 526.701754,19.2982456 527.578947,26.3157895 L527.578947,78.0701754 L529.333333,78.0701754 C547.754386,28.0701754 583.719298,4.38596491 631.087719,4.38596491 C679.333333,4.38596491 710.035088,28.0701754 731.087719,78.0701754 C749.508772,28.0701754 792.491228,4.38596491 838.105263,4.38596491 C870.561404,4.38596491 905.649123,17.5438596 927.578947,48.245614 C952.140351,81.5789474 946.877193,129.824561 946.877193,172.807018 L946.877193,423.684211 C946.877193,431.578947 939.859649,437.719298 931.964912,437.719298 L855.649123,437.719298 C847.754386,436.842105 841.614035,430.701754 841.614035,423.684211 L841.614035,213.157895 C841.614035,196.491228 843.368421,154.385965 839.859649,138.596491 C833.719298,112.280702 817.052632,104.385965 794.245614,104.385965 C775.824561,104.385965 755.649123,116.666667 747.754386,136.842105 C739.859649,157.017544 740.736842,190.350877 740.736842,213.157895 L740.736842,423.684211 C740.736842,431.578947 733.719298,437.719298 725.824561,437.719298 L648.631579,437.719298 C640.736842,436.842105 634.596491,430.701754 634.596491,423.684211 L634.596491,213.157895 C634.596491,169.298246 641.614035,103.508772 587.22807,103.508772 C531.964912,103.508772 533.719298,166.666667 533.719298,213.157895 L533.719298,423.684211 C532.842105,430.701754 526.701754,436.842105 517.929825,436.842105 Z M1947.75439,4.38596491 C2062.66667,4.38596491 2124.94737,102.631579 2124.94737,228.070175 C2124.94737,349.122807 2056.52632,445.614035 1947.75439,445.614035 C1835.47368,445.614035 1774.07018,347.368421 1774.07018,224.561404 C1773.19298,100.877193 1835.47368,4.38596491 1947.75439,4.38596491 Z M1947.75439,85.9649123 C1890.73684,85.9649123 1887.22807,164.035088 1887.22807,212.280702 C1887.22807,260.526316 1886.35088,364.035088 1946.87719,364.035088 C2006.52632,364.035088 2010.03509,280.701754 2010.03509,229.824561 C2010.03509,196.491228 2008.2807,156.140351 1998.63158,124.561404 C1989.85965,96.4912281 1972.31579,85.9649123 1947.75439,85.9649123 Z M2273.19298,436.842105 L2196,436.842105 C2188.10526,435.964912 2181.96491,429.824561 2181.96491,422.807018 L2181.96491,25.4385965 C2182.84211,18.4210526 2188.98246,12.2807018 2196.87719,12.2807018 L2268.80702,12.2807018 C2275.82456,12.2807018 2281.08772,17.5438596 2282.84211,23.6842105 L2282.84211,84.2105263 L2284.59649,84.2105263 C2306.52632,29.8245614 2336.35088,4.38596491 2389.85965,4.38596491 C2424.07018,4.38596491 2458.2807,16.6666667 2480.21053,50.877193 C2500.38596,82.4561404 2500.38596,135.964912 2500.38596,174.561404 L2500.38596,424.561404 C2499.50877,431.578947 2493.36842,436.842105 2485.47368,436.842105 L2408.2807,436.842105 C2401.26316,435.964912 2395.12281,430.701754 2394.24561,424.561404 L2394.24561,208.77193 C2394.24561,164.912281 2399.50877,101.754386 2346,101.754386 C2327.57895,101.754386 2310.03509,114.035088 2301.26316,133.333333 C2290.73684,157.894737 2288.98246,181.578947 2288.98246,208.77193 L2288.98246,422.807018 C2288.10526,430.701754 2281.08772,436.842105 2273.19298,436.842105 Z M1320.5614,435.964912 C1315.29825,440.350877 1308.2807,441.22807 1302.14035,437.719298 C1276.70175,416.666667 1271.4386,406.140351 1257.40351,385.964912 C1215.29825,428.947368 1184.59649,442.105263 1130.21053,442.105263 C1065.29825,442.105263 1014.42105,401.754386 1014.42105,321.929825 C1014.42105,258.77193 1048.63158,216.666667 1096.87719,195.614035 C1138.98246,177.192982 1197.75439,173.684211 1242.49123,168.421053 L1242.49123,158.77193 C1242.49123,140.350877 1244.24561,118.421053 1232.84211,102.631579 C1223.19298,88.5964912 1205.64912,82.4561404 1189.85965,82.4561404 C1160.03509,82.4561404 1133.7193,97.3684211 1127.57895,128.947368 C1125.82456,135.964912 1121.4386,142.982456 1114.42105,142.982456 L1039.85965,135.087719 C1033.7193,133.333333 1026.70175,128.947368 1028.45614,119.298246 C1046,28.0701754 1127.57895,0.877192982 1201.26316,0.877192982 C1238.98246,0.877192982 1288.10526,10.5263158 1317.92982,39.4736842 C1355.64912,74.5614035 1352.14035,121.929825 1352.14035,172.807018 L1352.14035,292.982456 C1352.14035,328.947368 1367.05263,344.736842 1381.08772,364.912281 C1386.35088,371.929825 1387.22807,380.701754 1381.08772,385.087719 C1364.42105,398.245614 1336.35088,422.807018 1320.5614,435.964912 Z M1242.49123,247.368421 L1242.49123,230.701754 C1186.35088,230.701754 1127.57895,242.982456 1127.57895,308.77193 C1127.57895,342.105263 1145.12281,364.912281 1174.94737,364.912281 C1196.87719,364.912281 1216.17544,351.754386 1228.45614,329.824561 C1243.36842,302.631579 1242.49123,277.192982 1242.49123,247.368421 Z M288.105263,437.719298 C262.666667,416.666667 257.403509,406.140351 243.368421,385.964912 C201.263158,428.947368 170.561404,442.105263 116.175439,442.105263 C51.2631579,442.105263 0.385964912,401.754386 0.385964912,321.929825 C0.385964912,258.77193 34.5964912,216.666667 82.8421053,195.614035 C124.947368,177.192982 183.719298,173.684211 228.45614,168.421053 L228.45614,158.77193 C228.45614,140.350877 230.210526,118.421053 218.807018,102.631579 C209.157895,88.5964912 191.614035,82.4561404 175.824561,82.4561404 C146,82.4561404 119.684211,97.3684211 113.54386,128.947368 C111.789474,135.964912 107.403509,142.982456 100.385965,142.982456 L25.8245614,135.087719 C19.6842105,133.333333 12.6666667,128.947368 14.4210526,119.298246 C31.9649123,28.0701754 113.54386,0.877192982 187.22807,0.877192982 C224.947368,0.877192982 274.070175,10.5263158 303.894737,39.4736842 C341.614035,74.5614035 338.105263,121.929825 338.105263,172.807018 L338.105263,292.982456 C338.105263,328.947368 353.017544,344.736842 367.052632,364.912281 C372.315789,371.929825 373.192982,380.701754 367.052632,385.087719 C350.385965,398.245614 322.315789,422.807018 306.526316,435.964912 C301.263158,440.350877 294.245614,441.22807 288.105263,437.719298 Z M229.333333,247.368421 L229.333333,230.701754 C173.192982,230.701754 114.421053,242.982456 114.421053,308.77193 C114.421053,342.105263 131.964912,364.912281 161.789474,364.912281 C183.719298,364.912281 203.017544,351.754386 215.298246,329.824561 C230.210526,302.631579 229.333333,277.192982 229.333333,247.368421 Z" id="Shape" fill="#FFFFFFFF" fill-rule="nonzero" fill-color-id="1" stroke-color-id="-1" recolor-fill="true" recolor-stroke="true"/>
        </g>
    </g>
</svg>