<svg xmlns="http://www.w3.org/2000/svg" xmlns:xlink="http://www.w3.org/1999/xlink" viewBox="0 0 161 26" version="1.1" width="100px" height="17px">
    <!-- Generator: Sketch 52.6 (67491) - http://www.bohemiancoding.com/sketch -->
    <title>gucci</title>
    <desc>Created with Sketch.</desc>
    <g id="gucci" stroke="undefined" stroke-width="1" fill="#FFFFFFFF" fill-rule="evenodd" fill-color-id="0" stroke-color-id="0" recolor-fill="true" recolor-stroke="true">
        <g fill="#FFFFFFFF" fill-rule="nonzero" id="Shape" fill-color-id="0" stroke-color-id="0" recolor-fill="true" recolor-stroke="true" stroke="undefined">
            <path d="M154.855,1.725 L160.498,1.725 C159.873,2.21 159.498,2.804 159.498,3.617 L159.498,23.048 C159.498,23.86 159.889,24.439 160.498,24.923 L154.855,24.923 C155.464,24.439 155.839,23.845 155.839,23.048 L155.839,3.616 C155.84,2.803 155.48,2.209 154.855,1.725 Z M24.065,10.072 C23.143,8.087 22.127,6.133 20.423,4.711 C18.61,3.179 16.311,2.257 13.935,2.257 C7.62,2.257 4.79,7.962 4.79,13.574 C4.79,18.999 7.495,24.485 13.591,24.485 C16.076,24.485 18.5,23.407 20.031,21.452 L20.031,17.075 C20.031,15.887 19.64,15.122 18.718,14.419 L25.174,14.419 C24.486,15.2 24.065,15.997 24.065,17.075 L24.065,21.452 C21.11,24.204 17.437,25.891 13.357,25.891 C6.151,25.891 0.257,20.592 0.257,13.214 C0.257,5.883 6.072,0.865 13.185,0.865 C17.609,0.865 21.188,2.491 24.065,5.758 L24.065,10.072 Z M39.884,1.725 L45.965,1.725 C45.136,2.334 44.855,3.022 44.855,4.038 L44.855,18.217 C44.855,22.108 49.419,24.016 52.765,24.016 C56.048,24.016 60.331,22.094 60.331,18.295 L60.331,4.038 C60.331,3.084 60.096,2.428 59.456,1.725 L62.77,1.725 C62.098,2.413 61.848,3.1 61.848,4.038 L61.848,18.295 C61.848,23.422 55.799,25.391 51.609,25.391 C47.295,25.391 40.995,23.485 40.995,18.217 L40.995,4.038 C40.994,3.069 40.603,2.35 39.884,1.725 Z M100.785,10.15 C99.973,8.102 99.019,6.305 97.346,4.82 C95.549,3.225 93.36,2.225 90.938,2.225 C84.686,2.225 81.481,7.696 81.481,13.371 C81.481,19.076 84.811,24.469 90.985,24.469 C95.581,24.469 98.864,21.233 100.786,17.34 L100.786,21.561 C97.927,24.391 94.237,25.829 90.204,25.829 C82.731,25.829 77.135,20.999 77.135,13.293 C77.135,5.806 82.512,0.882 89.844,0.882 C93.908,0.882 97.846,2.289 100.785,5.087 L100.785,10.15 Z M139.99,10.15 C139.178,8.102 138.222,6.305 136.551,4.82 C134.754,3.225 132.565,2.225 130.143,2.225 C123.889,2.225 120.7,7.696 120.7,13.371 C120.7,19.076 124.014,24.469 130.19,24.469 C134.786,24.469 138.083,21.233 139.991,17.34 L139.991,21.561 C137.13,24.391 133.456,25.829 129.409,25.829 C121.936,25.829 116.341,20.999 116.341,13.293 C116.341,5.806 121.718,0.882 129.048,0.882 C133.112,0.882 137.052,2.289 139.991,5.087 L139.991,10.15 L139.99,10.15 Z" fill-color-id="0" stroke-color-id="0" recolor-fill="true" recolor-stroke="true" fill="#FFFFFFFF" stroke="undefined"/>
        </g>
    </g>
</svg>