<svg xmlns="http://www.w3.org/2000/svg" xmlns:xlink="http://www.w3.org/1999/xlink" viewBox="0 0 188 41" version="1.1" width="100px" height="22px">
    <!-- Generator: Sketch 52.6 (67491) - http://www.bohemiancoding.com/sketch -->
    <title>lancome</title>
    <desc>Created with Sketch.</desc>
    <g id="lancome" stroke="undefined" stroke-width="1" fill="#FFFFFFFF" fill-rule="evenodd" fill-color-id="0" stroke-color-id="0" recolor-fill="true" recolor-stroke="true">
        <g fill="#FFFFFFFF" fill-color-id="0" stroke-color-id="0" recolor-fill="true" recolor-stroke="true" stroke="undefined">
            <path d="M56.538,36.193 L56.538,34.144 L59.611,34.144 C60.38,34.144 61.148,34.144 61.148,35.167 C61.148,36.063 60.38,36.192 59.611,36.192 L56.538,36.192 L56.538,36.193 Z M55.129,40.291 L56.538,40.291 L56.538,37.346 L59.227,37.346 C60.508,37.346 62.557,37.346 62.557,35.168 C62.557,32.863 60.508,32.863 59.227,32.863 L55.129,32.863 L55.129,40.291 Z M67.294,37.346 L68.831,34.016 L70.368,37.346 L67.294,37.346 Z M64.35,40.291 L65.887,40.291 L66.655,38.625 L70.881,38.625 L71.649,40.291 L73.186,40.291 L69.601,32.863 L67.936,32.863 L64.35,40.291 Z M78.307,36.193 L78.307,34.015 L81.124,34.015 C82.276,34.015 82.917,34.271 82.917,35.04 C82.917,35.936 82.276,36.192 81.124,36.192 L78.307,36.192 L78.307,36.193 Z M76.899,40.291 L78.307,40.291 L78.307,37.346 L80.612,37.346 L82.789,40.291 L84.581,40.291 L82.276,37.217 C83.428,37.217 84.325,36.449 84.325,35.041 C84.325,33.248 83.045,32.863 81.38,32.863 L76.899,32.863 L76.899,40.291 Z M88.936,32.863 L90.344,32.863 L90.344,40.291 L88.936,40.291 L88.936,32.863 Z M100.717,35.168 C100.461,34.4 99.821,33.889 98.028,33.889 C97.005,33.889 96.108,34.145 96.108,34.784 C96.108,35.169 96.235,35.425 97.772,35.68 L99.565,35.938 C101.229,36.194 102.126,36.834 102.126,37.987 C102.126,39.778 100.462,40.419 98.54,40.419 C95.339,40.419 94.571,38.884 94.315,38.37 L95.724,37.858 C95.98,38.37 96.62,39.139 98.54,39.139 C99.692,39.139 100.718,38.754 100.718,38.114 C100.718,37.729 100.206,37.346 99.054,37.218 L97.261,36.962 C95.597,36.835 94.572,36.066 94.572,34.913 C94.572,32.735 97.517,32.735 98.029,32.735 C101.23,32.735 101.871,34.145 102,34.657 L100.717,35.168 Z M135.035,24.283 C135.42,28.125 137.34,27.484 137.469,27.869 L130.041,27.869 C129.912,27.74 132.09,27.74 131.705,24.539 L129.785,9.942 C129.656,9.558 129.656,9.173 129.4,9.173 C129.273,9.301 122.869,24.923 122.869,24.923 C122.742,25.179 122.613,25.308 122.357,24.923 C122.23,24.667 116.339,11.734 116.339,11.734 C116.083,11.094 115.569,10.069 115.443,9.814 C115.314,9.558 115.058,9.558 115.058,10.582 L113.521,25.309 C113.138,27.87 115.57,27.741 115.57,27.87 L110.193,27.87 C110.193,27.741 111.986,27.999 112.369,25.309 L114.162,9.046 C114.035,5.845 111.857,5.973 111.857,5.716 L117.492,5.716 L117.492,5.972 L123.383,18.906 L123.639,19.162 C123.766,19.546 123.766,19.802 124.024,19.418 L129.786,5.716 L135.165,5.716 C135.165,5.972 132.987,5.844 132.987,8.533 L135.035,24.283 Z M12.359,27.102 L9.414,27.102 C8.39,27.102 7.109,27.229 7.109,26.077 L7.109,8.917 C7.109,6.228 10.054,6.228 10.182,5.972 L1.091,5.972 C0.963,6.228 3.908,6.228 3.908,9.045 L3.908,25.564 C3.908,27.74 0.834,27.74 0.834,27.869 L16.841,27.869 L17.737,23.131 C17.354,23.131 17.61,26.973 12.359,27.102 Z M145.279,16.985 L145.279,25.308 C145.279,26.972 145.152,27.101 146.304,27.101 L152.195,27.101 C156.931,26.845 156.035,23.515 156.42,23.386 L156.293,27.868 L139.773,27.868 C139.644,27.739 142.207,28.124 142.207,24.538 L142.207,9.173 C142.207,5.588 139.9,6.1 139.9,5.844 L156.293,5.844 L156.42,10.198 C156.164,10.198 157.061,6.74 152.066,6.485 L146.687,6.485 C145.791,6.741 145.279,6.101 145.279,8.277 L145.279,14.039 C145.279,14.807 145.408,14.935 146.431,14.935 L151.81,14.935 C154.371,14.935 154.115,12.502 154.244,12.502 L154.244,18.264 C154.115,18.264 154.371,15.575 151.937,15.703 L146.56,15.703 C145.408,15.703 145.279,16.087 145.279,16.855 L145.279,16.985 Z M46.55,25.564 C46.806,28.253 48.855,27.613 48.855,27.869 L43.092,27.869 C43.092,27.613 45.397,27.869 45.397,25.435 L45.397,8.79 C45.397,5.973 42.964,5.973 42.836,5.716 L48.727,5.716 L60.764,20.697 L60.636,8.533 C60.636,5.588 58.331,5.844 58.331,5.716 L64.35,5.716 C64.35,5.844 62.045,5.844 61.917,8.533 L61.917,27.357 C61.917,27.357 62.045,28.765 61.148,27.613 C60.764,27.101 46.678,9.301 46.678,9.301 C46.55,9.045 46.55,9.301 46.55,9.685 L46.55,25.564 Z M38.739,25.053 L30.672,5.845 C30.031,5.204 29.776,5.973 29.776,5.973 C29.007,7.765 21.581,25.565 21.581,25.565 C20.557,27.999 19.276,27.741 19.276,27.87 L24.526,27.87 C24.526,27.614 21.709,27.999 22.733,25.565 L25.422,18.778 C25.806,18.266 25.806,18.138 26.446,18.138 L31.696,18.138 C32.336,18.138 32.336,18.138 32.72,18.778 L35.281,25.309 C36.049,27.87 33.744,27.741 33.744,27.87 L41.171,27.87 C41.3,27.613 40.019,28.381 38.739,25.053 Z M26.958,17.113 C26.446,17.113 26.446,16.729 26.702,16.217 C26.702,16.217 28.623,11.223 28.879,10.711 C29.263,9.943 29.52,10.071 29.775,10.711 L31.696,16.345 C31.952,16.857 32.208,17.114 31.568,17.114 L26.958,17.113 Z M107.248,4.691 L98.283,0.338 L89.448,4.691 L98.283,2.002 L107.248,4.691 Z M98.412,5.332 C91.369,5.332 86.887,10.839 86.887,16.729 C86.887,22.62 91.368,27.87 98.283,27.87 C105.199,27.87 109.808,22.62 109.808,16.729 C109.809,10.838 105.326,5.332 98.412,5.332 Z M98.283,27.102 C93.93,27.102 91.113,23.004 91.113,16.857 C91.113,9.686 94.058,6.229 98.283,6.229 C102.51,6.229 105.455,9.687 105.455,16.857 C105.455,23.004 102.51,26.973 98.283,27.102 Z M77.155,26.973 C82.277,26.973 84.454,23.387 84.967,23.26 C85.095,23.26 82.405,27.869 77.155,27.869 C65.246,27.869 65.374,16.985 65.374,16.985 C65.758,9.43 71.905,4.82 77.795,5.46 C79.46,5.716 80.1,5.972 81.253,6.228 C81.765,6.484 83.302,7.252 83.814,6.997 C84.198,6.869 84.582,5.973 84.71,5.973 L84.71,11.864 C84.326,11.864 82.918,6.229 77.283,6.229 C72.673,6.229 69.088,11.479 69.216,16.729 C69.343,25.436 75.362,26.973 77.155,26.973 Z M171.146,27.613 L171.658,27.613 C172.428,24.283 173.58,20.57 176.267,19.161 C176.14,18.905 174.988,17.752 174.732,17.752 C174.091,19.929 173.58,20.696 172.683,22.618 C171.787,24.668 171.273,26.846 171.146,27.613 Z M172.043,22.748 C171.273,21.082 169.098,18.393 168.586,18.009 L168.586,17.624 C169.482,17.881 171.147,18.905 171.787,19.93 C172.428,21.082 172.428,22.234 172.043,22.748 Z M168.713,19.162 C169.609,19.931 171.274,22.62 171.402,23.26 C171.531,23.772 171.273,23.643 170.89,23.643 C170.634,23.643 169.609,23.643 169.097,22.108 C168.713,20.57 168.713,19.162 168.713,19.162 Z M173.451,25.18 C175.115,24.668 178.574,24.284 179.086,24.284 L179.342,24.028 C178.574,23.643 177.164,23.26 175.885,23.516 C174.604,23.643 173.58,24.412 173.451,25.18 Z M178.316,25.053 C177.037,24.924 173.962,25.565 173.324,25.821 C173.066,25.95 173.195,26.206 173.451,26.591 C173.707,26.847 174.347,27.614 175.885,26.847 C177.549,26.076 178.316,25.053 178.316,25.053 Z M173.963,17.625 C173.836,13.656 171.531,10.839 169.994,9.046 C171.787,7.637 173.324,5.204 173.707,4.82 C174.219,4.307 174.859,4.179 175.5,4.82 C176.525,5.844 176.908,7.637 176.908,8.149 C176.781,8.533 176.267,9.173 176.012,9.43 C175.777332,8.86540659 175.521145,8.31000021 175.244,7.765 L174.732,8.277 C176.141,11.222 175.756,15.832 173.963,17.625 Z" id="Shape" fill-rule="nonzero" fill-color-id="0" stroke-color-id="0" recolor-fill="true" recolor-stroke="true" fill="#FFFFFFFF" stroke="undefined"/>
            <path d="M175.115,17.113 C175.599702,17.4786452 176.070055,17.8629335 176.525,18.265 C176.525,14.68 178.701,13.655 180.238,13.399 C180.109,12.375 180.623,10.326 181.134,9.43 C180.878,8.277 179.982,5.46 178.956,3.924 C178.829,6.485 177.933,8.278 176.14,10.198 C176.396,11.734 176.652,15.064 175.115,17.113 Z" id="Path" fill-color-id="0" stroke-color-id="0" recolor-fill="true" recolor-stroke="true" fill="#FFFFFFFF" stroke="undefined"/>
            <path d="M177.549,19.417 C176.781,16.088 178.445,14.167 180.879,14.039 C182.799,14.039 186.256,14.935 187.793,15.96 C185.232,17.881 181.135,18.906 177.549,19.417 Z M181.52,7.765 L183.184,7.253 C183.696,8.022 184.207,8.79 184.207,9.942 C184.336,10.07 184.721,10.454 184.721,10.582 C183.951,11.222 183.311,11.863 183.311,11.863 C183.184,12.887 182.799,13.528 182.799,13.528 C184.08,13.656 186.256,14.296 187.026,14.68 C187.667,14.296 187.922,14.168 187.922,13.784 C187.922,13.272 186.897,11.992 185.873,8.79 C184.977,5.716 185.617,4.564 184.977,4.18 C184.336,3.668 181.262,4.821 180.623,5.589 C180.623,5.588 181.135,6.74 181.52,7.765 Z" id="Shape" fill-rule="nonzero" fill-color-id="0" stroke-color-id="0" recolor-fill="true" recolor-stroke="true" fill="#FFFFFFFF" stroke="undefined"/>
            <path d="M183.568,10.198 C184.08,10.582 183.951,10.582 183.695,10.71 C183.439,10.966 183.31,10.966 183.31,10.966 C183.31,10.966 183.31,10.454 183.183,9.942 C183.311,9.942 183.439,9.942 183.568,10.198 Z M182.928,8.533 C182.799,8.277 182.799,8.149 182.799,8.149 C183.055,7.893 183.695,9.173 183.569,9.43 C183.44,9.558 183.44,9.43 183.44,9.43 C183.311,9.302 183.184,9.302 183.055,9.174 L183.055,9.046 C183.055,8.918 182.928,8.533 182.928,8.533 Z M181.006,13.399 C180.879,12.119 181.262,10.71 181.902,9.558 L181.902,9.302 L181.902,9.174 C181.842635,8.91006362 181.756869,8.65276837 181.646,8.406 L182.158,8.278 C182.158,8.278 182.287,8.534 182.287,8.662 C182.416,9.046 182.928,10.583 182.799,11.607 C182.672,12.503 182.543,12.888 182.031,13.399 L181.006,13.399 Z" id="Shape" fill-rule="nonzero" fill-color-id="0" stroke-color-id="0" recolor-fill="true" recolor-stroke="true" fill="#FFFFFFFF" stroke="undefined"/>
        </g>
    </g>
</svg>