<svg xmlns="http://www.w3.org/2000/svg" xmlns:xlink="http://www.w3.org/1999/xlink" viewBox="0 0 188 99" version="1.1" width="100px" height="53px">
    <!-- Generator: Sketch 52.6 (67491) - http://www.bohemiancoding.com/sketch -->
    <title>nike</title>
    <desc>Created with Sketch.</desc>
    <g id="nike" stroke="none" stroke-width="1" fill="none" fill-rule="evenodd" fill-color-id="-1" stroke-color-id="-1" recolor-fill="true" recolor-stroke="true">
        <g fill="#FFFFFFFF" fill-color-id="0" stroke-color-id="-1" recolor-fill="true" recolor-stroke="true">
            <path d="M32.175,60.36 C30.687,60.36 29.522,61.401 29.522,62.92 C29.522,64.44 30.693,65.475 32.175,65.475 C33.656,65.475 34.828,64.433 34.828,62.92 C34.828,61.401 33.662,60.36 32.175,60.36 Z M32.175,64.743 C31.114,64.743 30.327,63.968 30.327,62.92 C30.327,61.873 31.108,61.092 32.175,61.092 C33.229,61.092 34.022,61.885 34.022,62.92 C34.022,63.949 33.222,64.743 32.175,64.743 Z M57.99,51.406 L45.075,51.406 L46.543,28.958 L38.156,51.406 L26.163,51.406 L45.192,0.667 L57.953,0.667 L56.48,23.423 L65.026,0.667 L77.02,0.667 L57.99,51.406 Z M59.548,51.406 L78.576,0.667 L90.569,0.667 L71.541,51.406 L59.548,51.406 Z" id="Shape" fill-rule="nonzero" fill-color-id="0" stroke-color-id="-1" recolor-fill="true" recolor-stroke="true" fill="#FFFFFFFF"/>
            <path d="M24.78,33.917 C8.021,53.598 -7.788,79.785 6.176,91.844 C19.707,103.53 36.62,96.611 48.152,91.998 C59.684,87.385 187.147,32.033 187.147,32.033 C188.377,31.418 188.147,30.649 186.609,31.033 C185.989,31.188 47.845,68.626 47.845,68.626 C30.315,73.547 10.327,62.822 24.78,33.917 Z" id="Path" fill-color-id="0" stroke-color-id="-1" recolor-fill="true" recolor-stroke="true" fill="#FFFFFFFF"/>
            <path d="M32.627,63.1 C32.999,63.082 33.29,62.89 33.29,62.375 C33.29,61.711 32.856,61.544 32.131,61.544 L31.089,61.544 L31.089,64.297 L31.784,64.297 L31.784,63.125 L31.901,63.125 L32.534,64.297 L33.333,64.297 L32.627,63.1 Z M32.181,62.654 L31.785,62.654 L31.785,62.015 L32.119,62.015 C32.324,62.015 32.559,62.039 32.559,62.306 C32.559,62.592 32.423,62.654 32.181,62.654 Z M152.733,0.512 C151.245,0.512 150.08,1.554 150.08,3.072 C150.08,4.591 151.252,5.626 152.733,5.626 C154.214,5.626 155.386,4.584 155.386,3.072 C155.387,1.554 154.222,0.512 152.733,0.512 Z M152.733,4.896 C151.672,4.896 150.885,4.121 150.885,3.073 C150.885,2.026 151.666,1.245 152.733,1.245 C153.787,1.245 154.581,2.038 154.581,3.073 C154.581,4.102 153.781,4.896 152.733,4.896 Z" id="Shape" fill-rule="nonzero" fill-color-id="0" stroke-color-id="-1" recolor-fill="true" recolor-stroke="true" fill="#FFFFFFFF"/>
            <path d="M153.186,3.252 C153.558,3.234 153.85,3.042 153.85,2.527 C153.85,1.863 153.415,1.696 152.691,1.696 L151.649,1.696 L151.649,4.448 L152.343,4.448 L152.343,3.277 L152.461,3.277 L153.093,4.448 L153.893,4.448 L153.186,3.252 Z M152.739,2.806 L152.343,2.806 L152.343,2.167 L152.678,2.167 C152.882,2.167 153.118,2.192 153.118,2.459 C153.118,2.744 152.981,2.806 152.739,2.806 Z M144.831,9.124 L148.054,0.667 L111.46,0.667 L98.895,15.889 L104.696,0.667 L92.549,0.667 L73.673,51.406 L85.666,51.406 L93.725,30.188 L94.277,51.406 L131.076,51.326 L134.579,41.566 L120.588,41.566 L125.185,29.266 L136.716,29.266 L140.264,19.81 L128.733,19.81 L132.686,9.124 L144.831,9.124 Z M106.175,48.023 L105.406,21.578 L123.539,1.669 L106.175,48.023 Z" id="Shape" fill-rule="nonzero" fill-color-id="0" stroke-color-id="-1" recolor-fill="true" recolor-stroke="true" fill="#FFFFFFFF"/>
        </g>
    </g>
</svg>