<svg xmlns="http://www.w3.org/2000/svg" xmlns:xlink="http://www.w3.org/1999/xlink" viewBox="0 0 2501 584" version="1.1" width="1000px" height="234px">
    <!-- Generator: Sketch 52.6 (67491) - http://www.bohemiancoding.com/sketch -->
    <title>zara</title>
    <desc>Created with Sketch.</desc>
    <g id="zara" stroke="none" stroke-width="1" fill="none" fill-rule="evenodd" fill-color-id="-1" stroke-color-id="-1" recolor-fill="true" recolor-stroke="true">
        <g fill="#FFFFFFFF" fill-color-id="0" stroke-color-id="-1" recolor-fill="true" recolor-stroke="true">
            <path d="M493.9,490.4 C493.9,529.7 461.1,561.6 436.4,561.6 L157.1,561.6 L508.4,0.4 L38.7,0.4 L38.7,93.4 L62.8,93.4 C62.8,54.1 88.2,22.3 113,22.3 L354.3,22.3 L0.9,583.4 L510.5,583.4 L510.5,490.4 L493.9,490.4" id="Path" fill-color-id="0" stroke-color-id="-1" recolor-fill="true" recolor-stroke="true" fill="#FFFFFFFF"/>
            <g id="Group" transform="translate(520.000000, 0.000000)" fill-rule="nonzero" fill-color-id="0" stroke-color-id="-1" recolor-fill="true" recolor-stroke="true" fill="#FFFFFFFF">
                <path d="M583.4,538 L311.6,0.4 L62.5,538.4 C58.1,550.2 34.1,565.1 0.1,565.1 L0.1,583.3 L132.7,583.3 L132.7,565.1 C108.1,565.1 81.7,552.9 88.1,538.3 L148,408.4 L377.8,408.4 L443.1,538 C450.5,551.1 417.4,565.2 383.3,565.2 L383.3,583.4 L659.3,583.4 L659.4,565.2 C617.6,565.1 592.1,552.1 583.4,538 Z M158,387.4 L257.4,169.2 L368.4,387.4 L158,387.4 Z" id="Shape" fill-color-id="0" stroke-color-id="-1" recolor-fill="true" recolor-stroke="true" fill="#FFFFFFFF"/>
            </g>
            <path d="M1211,22.9 C1251.4,22.9 1284.8,33.3 1284.8,45.9 C1284.8,145.9 1284.6,537.4 1284.8,537.4 C1284.8,550.8 1251.9,565.7 1211.4,565.7 L1211.3,583.3 L1481.5,583.3 L1481.5,566.9 C1441.4,566.9 1408.9,550.9 1408.9,537.5 L1408.9,18 L1486.8,18 C1561.8,18 1622.6,80.3 1622.6,151 C1622.6,221.7 1561.8,279.1 1486.7,279.1 L1432.8,279.1 C1432.8,279.1 1615.4,555.6 1615.7,555.6 C1622.9,566.1 1626.5,583.4 1626.5,583.4 L1823.4,583.4 L1823.4,567 C1785.5,567 1765.7,551.3 1754.7,537.5 L1578.9,308.1 C1663.3,302.5 1728.6,234.3 1728.6,153.3 C1728.6,68.7 1655.9,0.4 1566.2,0.4 L1211,0.4 L1211,22.9" id="Path" fill-color-id="0" stroke-color-id="-1" recolor-fill="true" recolor-stroke="true" fill="#FFFFFFFF"/>
            <path d="M2425,538 L2153.2,0.4 L1904.1,538.4 C1899.7,550.2 1875.8,565.7 1841.7,565.7 L1841.7,583.3 L1974.3,583.3 L1974.3,566.9 C1949.7,566.9 1923.4,552.9 1929.7,538.3 L1989.6,408.4 L2219.4,408.4 L2284.7,538 C2292.2,551.1 2259,565.8 2224.9,565.8 L2224.9,583.4 L2500.9,583.4 L2501,566.4 C2459.2,566.4 2433.7,552.1 2425,538 Z M1999.5,387.4 L2098.9,169.2 L2209.9,387.4 L1999.5,387.4 Z" id="Shape" fill-rule="nonzero" fill-color-id="0" stroke-color-id="-1" recolor-fill="true" recolor-stroke="true" fill="#FFFFFFFF"/>
        </g>
    </g>
</svg>