<svg xmlns="http://www.w3.org/2000/svg" viewBox="0 0 512 512" id="open-box"><path d="M510.928 191.511 475.12 129.49a7.999 7.999 0 0 0-2.928-2.928L260 4.053a8 8 0 0 0-8 0L39.808 126.562a7.999 7.999 0 0 0-2.928 2.928L1.072 191.511A8 8 0 0 0 4 202.439l31.808 18.364V378.51a7.998 7.998 0 0 0 4 6.928L252 507.946c1.237.715 2.619 1.072 4 1.072s2.763-.357 4-1.072l212.192-122.509a7.997 7.997 0 0 0 4-6.928V220.803L508 202.439a8 8 0 0 0 2.928-10.928zM256 20.219 452.192 133.49 256 246.762 59.808 133.49 256 20.219zM46.736 144.418l198.336 114.51-27.808 48.165-198.336-114.51 27.808-48.165zm5.072 85.623 164.385 94.907a7.994 7.994 0 0 0 10.927-2.928L248 285.856v201.306L51.808 373.891v-143.85zm408.384 143.85L264 487.162V285.856l20.88 36.164a8.002 8.002 0 0 0 6.927 4 7.99 7.99 0 0 0 4-1.072l164.385-94.907v143.85zm-165.457-66.798-27.808-48.165 198.336-114.51 27.808 48.164-198.336 114.511z"></path></svg>