<svg xmlns="http://www.w3.org/2000/svg" fill-rule="evenodd" stroke-linejoin="round" stroke-miterlimit="2" clip-rule="evenodd" viewBox="0 0 32 32" id="delivery"><path d="M405.772,306.191c0.4,-3.115 0.284,-6.423 -0.351,-9.425c-0.108,-0.444 -0.505,-0.757 -0.963,-0.757c-0.001,-0 -0.002,-0 -0.003,-0c-3.455,-0.008 -11.455,-0.008 -11.455,-0.008c-0.552,-0 -1,-0.448 -1,-1c0,-0.552 0.448,-1 1,-1c0,-0 8.003,-0 11.458,0.008c1.394,-0 2.603,0.963 2.915,2.322c0.002,0.005 0.003,0.011 0.004,0.016c0.183,0.864 0.326,1.751 0.429,2.653l1.953,-0c1.061,-0 2.078,0.421 2.828,1.172c0.392,0.391 0.852,0.851 1.243,1.242c0.75,0.75 1.171,1.768 1.171,2.828c0,1.041 0,2.547 0,3.757c0,1.657 -1.343,3 -3,3l-1.131,0c-0.445,1.725 -2.011,3.001 -3.874,3.001c-1.862,-0 -3.428,-1.276 -3.873,-3.001c-1.461,0 -3.328,0 -5.249,-0c-0.444,1.725 -2.011,3.001 -3.873,3.001c-1.864,-0 -3.431,-1.278 -3.874,-3.004c-0.203,-0 -0.393,-0.001 -0.571,-0.001c-1.4,0 -2.613,-0.968 -2.922,-2.333c-0.001,-0.001 -0.001,-0.003 -0.001,-0.004c-0.342,-1.538 -0.544,-3.077 -0.607,-4.617c-0.022,-0.552 0.407,-1.018 0.959,-1.04c0.551,-0.023 1.017,0.407 1.039,0.958c0.058,1.422 0.245,2.842 0.56,4.261c0.104,0.454 0.507,0.775 0.971,0.775l0.574,0.001c0.446,-1.723 2.011,-2.996 3.872,-2.996c1.861,-0 3.428,1.275 3.872,2.999c1.921,0 3.789,0 5.251,0c0.342,-1.328 1.351,-2.39 2.648,-2.808Zm-11.771,1.809c1.103,-0 1.999,0.896 1.999,2c-0,1.104 -0.896,2 -1.999,2c-1.104,-0 -1.999,-0.896 -1.999,-2c-0,-1.104 0.895,-2 1.999,-2Zm12.995,-0c1.104,-0 2,0.896 2,2c-0,1.104 -0.896,2 -2,2c-1.103,-0 -1.999,-0.896 -1.999,-2c0,-1.104 0.896,-2 1.999,-2Zm3.873,0.999l1.132,0c0.552,0 1,-0.447 1,-1l0,-3.757c0,-0.53 -0.21,-1.039 -0.585,-1.414c-0.392,-0.391 -0.852,-0.851 -1.243,-1.242c-0.375,-0.375 -0.884,-0.586 -1.414,-0.586l-1.792,-0c0.081,1.695 0.025,3.411 -0.167,5.081c1.497,0.305 2.69,1.449 3.069,2.918Zm-15.875,-8.999l-3.994,-0.001c-0.552,-0 -1,0.448 -1,1c-0,0.552 0.448,1 1,1l3.993,0.001c0.552,-0 1.001,-0.448 1.001,-1c-0,-0.552 -0.448,-1 -1,-1Zm-7.001,-0l-1.993,-0.001c-0.552,-0 -1,0.448 -1.001,1c0,0.552 0.448,1 1,1l1.993,0.001c0.552,0 1.001,-0.448 1.001,-1c0,-0.552 -0.448,-1 -1,-1Zm-1.994,-1l3.994,0.001c0.552,-0 1,-0.448 1,-1c0,-0.552 -0.448,-1 -1,-1l-3.994,-0.001c-0.551,-0 -1,0.448 -1,1c0,0.552 0.448,1 1,1Zm7.001,-0l1.993,0.001c0.552,0 1,-0.448 1.001,-1c-0,-0.552 -0.448,-1 -1,-1l-1.994,-0.001c-0.552,-0 -1,0.448 -1,1c-0,0.552 0.448,1 1,1Zm-5.001,-3l1.993,0c0.552,0.001 1.001,-0.447 1.001,-0.999c0,-0.552 -0.448,-1 -1,-1.001l-1.993,-0c-0.552,-0.001 -1,0.447 -1.001,0.999c0,0.552 0.448,1 1,1.001Z" transform="translate(-384 -288)"></path></svg>