<svg xmlns="http://www.w3.org/2000/svg" width="96" height="96" id="smiling-smiley"><path d="M47.84 4.12c-24.263 0-44 19.747-44 44 0 24.257 19.737 44.01 44 44.01 24.268 0 44-19.753 44-44.01 0-24.253-19.733-44-44-44zm0 84.346c-22.236 0-40.332-18.099-40.332-40.346 0-22.23 18.096-40.332 40.332-40.332S88.176 25.89 88.176 48.12c0 22.247-18.1 40.346-40.336 40.346z"></path><path d="M38.929 39.844a6.41 6.41 0 0 1-6.414 6.414 6.417 6.417 0 0 1-6.418-6.414 6.424 6.424 0 0 1 6.418-6.418 6.417 6.417 0 0 1 6.414 6.418zm30.655 0a6.418 6.418 0 0 1-6.414 6.414 6.413 6.413 0 0 1-6.422-6.414 6.42 6.42 0 0 1 6.422-6.418c3.533 0 6.414 2.878 6.414 6.418zm2.852 16.68h.01c-.01.01-.01.021-.01.03s0 .02-.01.029l-.01.006c-.041.076-.072.148-.127.211 0 .01-.008.02-.008.02-4.862 8.45-13.984 14.142-24.451 14.142-10.441 0-19.569-5.692-24.438-14.142a.54.54 0 0 1-.138-.246.784.784 0 0 1-.072-.358c0-.554.441-.994.99-.994.247 0 .493.103.667.267l.02.029a.818.818 0 0 1 .228.309c5.114 7.008 13.41 11.564 22.742 11.564 9.358 0 17.648-4.547 22.77-11.574.057-.124.143-.236.229-.338.008 0 .008 0 .008-.006l.01.006a.978.978 0 0 1 1.652.716c0 .123-.03.223-.062.329z"></path></svg>