<svg width="40" height="40" viewBox="0 0 150 145" fill="none" xmlns="http://www.w3.org/2000/svg">
<path fill-rule="evenodd" clip-rule="evenodd" d="M27.33 1.326C22.789 3.008 18.124 7.51501 15.935 12.335C14.366 15.791 14.038 18.968 14.007 31C13.986 38.975 13.639 45.962 13.235 46.526C12.831 47.09 10.475 49.081 8 50.949C-1.391 58.039 -1.456 60.38 7.5 68.85L14 74.998V89.303C14 102.733 14.16 103.929 16.621 108.868C19.897 115.441 25.073 118.946 32.662 119.729L38.098 120.29L37.799 113.409L37.5 106.527L33.739 105.919C31.67 105.585 29.645 104.98 29.239 104.576C28.833 104.171 28.262 96.773 27.971 88.135C27.471 73.281 27.293 72.176 24.69 67.733C23.176 65.15 21.007 62.539 19.869 61.93C17.85 60.849 17.876 60.75 20.973 57.722C26.741 52.083 27.377 49.856 27.742 34C27.926 26.025 28.274 18.565 28.514 17.421C28.977 15.226 32.77 13 36.047 13C37.784 13 38 12.281 38 6.5V0L34.25 0.076004C32.188 0.118004 29.074 0.680004 27.33 1.326ZM113 6.5C113 12.668 113.121 13 115.365 13C116.666 13 118.916 13.933 120.365 15.073C122.99 17.137 123 17.2 123.006 31.323C123.012 47.77 123.872 51.746 128.544 56.917L131.956 60.693L129.487 63.013C124.16 68.017 123 72.412 123 87.593C123 103.769 122.205 106 116.443 106H113V113.139V120.279L118.244 119.658C124.442 118.923 130.444 115.107 133.452 109.986C135.21 106.994 135.571 104.255 136 90.655L136.5 74.809L142.773 69.155C148.351 64.127 149.043 63.088 149.023 59.782C149.002 56.449 148.422 55.628 143.401 51.838C140.322 49.513 137.397 46.544 136.901 45.24C136.406 43.936 136 36.581 136 28.895C136 17.125 135.7 14.335 134.097 11.21C130.595 4.38101 123.73 0 116.532 0H113V6.5ZM49.5 29.068C45.881 31.386 45 31.471 45 29.5C45 27.155 43.411 27.723 40.589 31.077C37.539 34.701 37.392 36.063 39.75 38.837C41.329 40.694 42.788 40.92 54.693 41.154C66.145 41.378 68.145 41.179 69.844 39.641C70.92 38.667 72.043 36.944 72.339 35.812C72.831 33.932 72.535 33.799 68.939 34.281C65.731 34.712 64.997 34.502 64.985 33.155C64.951 29.481 63.482 28.699 60 30.5C56.64 32.238 55.055 31.522 55.015 28.25C54.994 26.513 53.034 26.804 49.5 29.068ZM83 33.5C83 35.056 83.567 36 84.5 36C85.325 36 86 35.325 86 34.5C86 33.675 86.45 33 87 33C87.55 33 88 33.675 88 34.5C88 35.325 88.675 36 89.5 36C90.325 36 91 35.325 91 34.5C91 33.675 91.675 33 92.5 33C93.325 33 94 33.675 94 34.5C94 35.679 95.389 36 100.5 36C106.767 36 107 35.91 107 33.5V31H95H83V33.5ZM32.607 39.882C30.629 42.067 30.726 48.092 32.75 48.756C33.438 48.982 34 48.596 34 47.898C34 47.2 34.997 45.567 36.217 44.27C37.916 42.461 38.191 41.526 37.395 40.265C35.858 37.828 34.559 37.725 32.607 39.882ZM83.429 39.325C83.149 40.054 83.051 44.891 83.21 50.075L83.5 59.5L89.75 59.798L96 60.095V49.048V38H89.969C85.884 38 83.773 38.428 83.429 39.325ZM99 47.44C99 54.078 99.358 57 100.171 57C100.815 57 102.176 57.754 103.195 58.676C106.282 61.47 107.1 59.133 106.788 48.412L106.5 38.5L102.75 38.19L99 37.879V47.44ZM71.166 42.3C70.316 43.324 70.342 44.336 71.266 46.326C73.126 50.333 75.184 49.753 74.81 45.327C74.475 41.36 72.978 40.117 71.166 42.3ZM94 42.5C94 43.583 92.889 44 90 44C87.111 44 86 43.583 86 42.5C86 41.417 87.111 41 90 41C92.889 41 94 41.417 94 42.5ZM104 42.5C104 43.325 103.55 44 103 44C102.45 44 102 43.325 102 42.5C102 41.675 102.45 41 103 41C103.55 41 104 41.675 104 42.5ZM37.75 46.25L35.5 48.5L41 48.759C48.82 49.128 50.781 49.733 51.501 52.002C52.321 54.587 55 54.599 55 52.019C55 49.755 56.88 49.142 65 48.759L70.5 48.5L68.25 46.25C66.147 44.147 65.148 44 53 44C40.852 44 39.853 44.147 37.75 46.25ZM94 48C94 48.55 92.2 49 90 49C87.8 49 86 48.55 86 48C86 47.45 87.8 47 90 47C92.2 47 94 47.45 94 48ZM104 48C104 48.55 103.55 49 103 49C102.45 49 102 48.55 102 48C102 47.45 102.45 47 103 47C103.55 47 104 47.45 104 48ZM31.38 53.452C31.074 54.251 31.114 55.376 31.47 55.952C32.635 57.837 34 57.053 34 54.5C34 51.789 32.282 51.102 31.38 53.452ZM36 57V62H42.5H49V57V52H42.5H36V57ZM57 57V62H63.5H70V57V52H63.5H57V57ZM73 54.5C73 55.991 73.431 56.852 74 56.5C74.55 56.16 75 55.26 75 54.5C75 53.74 74.55 52.84 74 52.5C73.431 52.148 73 53.009 73 54.5ZM94 53C94 53.55 92.2 54 90 54C87.8 54 86 53.55 86 53C86 52.45 87.8 52 90 52C92.2 52 94 52.45 94 53ZM104 53C104 53.55 103.55 54 103 54C102.45 54 102 53.55 102 53C102 52.45 102.45 52 103 52C103.55 52 104 52.45 104 53ZM46.575 56.121C47.651 57.862 45.946 58.983 44.035 57.79C42.603 56.896 41.827 56.899 40.739 57.801C39.333 58.968 38 58.482 38 56.801C38 54.53 45.237 53.956 46.575 56.121ZM67.5 56C68.638 57.841 67.009 59.023 65.035 57.79C63.593 56.889 62.819 56.905 61.67 57.859C60.66 58.697 59.969 58.759 59.53 58.049C58.404 56.227 60.001 55 63.5 55C65.36 55 67.16 55.45 67.5 56ZM52 59.429C52 63.474 49.515 65 42.929 65C38.33 65 37 65.336 37 66.497C37 68.99 43.898 75.811 47.683 77.06C54.714 79.381 63.737 76.101 67.405 69.891C69.935 65.608 69.46 65 63.582 65C56.091 65 55 64.414 55 60.393C55 58.044 54.539 57 53.5 57C52.578 57 52 57.937 52 59.429ZM94.188 73.845C89.557 89.156 89.408 90 91.347 90C92.211 90 94.182 85.04 96.847 76.159C101.43 60.887 101.586 60 99.688 60C98.87 60 96.799 65.213 94.188 73.845ZM59.043 71.166C56.194 73.473 49 73.712 49 71.5C49 70.42 50.105 70 52.941 70C55.109 70 57.148 69.57 57.473 69.044C57.798 68.518 58.794 68.367 59.686 68.71C61.084 69.246 60.996 69.585 59.043 71.166ZM100.693 72.068C100.384 73.248 100.523 75.246 101.003 76.507C101.705 78.354 101.498 78.898 99.937 79.306C97.222 80.016 97.515 82 100.336 82C102.339 82 102.91 82.855 104.336 87.985C105.251 91.277 106 94.427 106 94.985C106 95.566 103.271 96 99.622 96C92.644 96 90.614 97.248 91.173 101.195C91.482 103.375 91.975 103.516 100.25 103.789L109 104.078V99.478C109 95.655 102.936 71.603 101.648 70.315C101.431 70.098 101.001 70.887 100.693 72.068ZM76.109 78.25C73.032 85.437 72.708 87 74.294 87C75.534 87 80 77.539 80 74.911C80 72.509 77.735 74.452 76.109 78.25ZM67.948 78.556L65.605 81.049L67.702 83.146C70.1 85.545 72.922 84.815 70.859 82.33C69.905 81.181 69.889 80.407 70.79 78.965C72.603 76.062 70.566 75.768 67.948 78.556ZM81.57 76.887C81.269 77.374 81.703 78.339 82.536 79.03C83.886 80.15 83.877 80.478 82.46 82.044C79.942 84.827 82.72 85.612 85.58 82.925L88.011 80.641L85.831 78.32C83.494 75.833 82.441 75.478 81.57 76.887ZM47.643 83.099C45.925 85.552 46.971 89.758 49.973 92.476C51.697 94.036 52.038 94.034 55.159 92.446C56.997 91.511 58.629 90.636 58.787 90.502C59.273 90.09 56.7 84.603 55.152 82.75C53.165 80.372 49.432 80.545 47.643 83.099ZM59 83.55C59 84.942 62.157 90 63.026 90C64.48 90 64.204 87.736 62.443 85.223C61.022 83.194 59 82.211 59 83.55ZM57.679 93.99C55.661 94.821 54.008 95.793 54.005 96.152C53.998 97.074 59.843 99 62.649 99C63.942 99 65 98.55 65 98C65 97.45 66.575 97 68.5 97C70.425 97 72 96.605 72 96.122C72 93.024 63.209 91.715 57.679 93.99ZM67.248 100.25C67.529 101.1 70.599 101.592 76.831 101.788C84.539 102.029 86 101.83 86 100.538C86 99.261 84.372 99 76.417 99C69.196 99 66.935 99.308 67.248 100.25ZM19 126.5C19 127.424 19.938 128 21.44 128H23.881L21.44 135.175C18.139 144.881 18.164 145 23.5 145C26.833 145 28 144.611 28 143.5C28 142.57 27.058 142 25.521 142H23.043L25.521 135.129C29.005 125.473 28.91 125 23.5 125C20.167 125 19 125.389 19 126.5ZM30 135C30 144.333 30.133 145 32 145C33.704 145 34 144.333 34 140.5C34 137.167 34.389 136 35.5 136C36.611 136 37 137.167 37 140.5C37 144.333 37.296 145 39 145C40.867 145 41 144.333 41 135C41 125.667 40.867 125 39 125C37.333 125 37 125.667 37 129C37 131.889 36.583 133 35.5 133C34.417 133 34 131.889 34 129C34 125.667 33.667 125 32 125C30.133 125 30 125.667 30 135ZM43.667 125.667C43.3 126.033 43 130.533 43 135.667C43 144.956 43.012 145 45.5 145H48V135C48 125.97 47.822 125 46.167 125C45.158 125 44.033 125.3 43.667 125.667ZM51.2 126.2C50.477 126.923 50 130.422 50 135C50 143.538 50.825 145 55.643 145C60.108 145 62 142.023 62 135C62 127.977 60.108 125 55.643 125C53.859 125 51.86 125.54 51.2 126.2ZM63 132.777C63 142.154 64.48 145 69.357 145C74.302 145 75 143.614 75 133.8C75 125.727 74.838 125 73.04 125C71.278 125 71.052 125.822 70.79 133.17C70.597 138.599 70.081 141.478 69.25 141.753C68.315 142.062 68 140.004 68 133.583C68 125.094 67.972 125 65.5 125C63.048 125 63 125.148 63 132.777ZM79.557 126.25C79.349 126.938 78.655 130.425 78.017 134C77.378 137.575 76.615 141.512 76.32 142.75C75.897 144.524 76.215 145 77.824 145C78.987 145 80.138 144.139 80.5 143C80.849 141.9 81.779 141 82.567 141C83.355 141 84 141.9 84 143C84 144.333 84.667 145 86 145C88.451 145 88.484 143.931 86.364 133.25C84.859 125.669 84.532 125 82.332 125C81.015 125 79.766 125.563 79.557 126.25ZM95 135C95 143.222 95.267 145 96.5 145C97.643 145 98.035 143.63 98.145 139.25L98.29 133.5L99.313 139.291C100.661 146.919 102.974 146.788 104.618 138.99L105.776 133.5L105.888 139.25C105.974 143.645 106.354 145 107.5 145C108.733 145 109 143.222 109 135C109 125.067 108.984 125 106.561 125C104.438 125 104.035 125.581 103.448 129.5C103.077 131.975 102.425 134 102 134C101.575 134 100.923 131.975 100.552 129.5C99.965 125.581 99.562 125 97.439 125C95.016 125 95 125.067 95 135ZM111 135V145H115.5C118.833 145 120 144.611 120 143.5C120 142.667 119.111 142 118 142C116.444 142 116 141.333 116 139C116 137 116.5 136 117.5 136C118.325 136 119 135.325 119 134.5C119 133.675 118.325 133 117.5 133C116.567 133 116 132.056 116 130.5C116 128.667 116.533 128 118 128C119.111 128 120 127.333 120 126.5C120 125.389 118.833 125 115.5 125H111V135ZM121 135V145H125.345C131.495 145 133 143 133 134.826C133 126.959 131.439 125 125.171 125H121V135ZM57 135.083C57 140.303 56.671 142.058 55.75 141.755C54.461 141.33 53.442 131.897 54.412 129.369C55.773 125.823 57 128.533 57 135.083ZM128 135C128 139 127.571 142 127 142C126.429 142 126 139 126 135C126 131 126.429 128 127 128C127.571 128 128 131 128 135ZM82.575 137.758C81.489 138.844 81.177 137.496 81.822 134.5L82.467 131.5L82.809 134.341C82.997 135.904 82.892 137.442 82.575 137.758Z" fill="black"/>
</svg>
